<?xml version="1.0" encoding="utf-8"?>
<!-- Generator: Adobe Illustrator 15.0.0, SVG Export Plug-In . SVG Version: 6.00 Build 0)  -->
<!DOCTYPE svg PUBLIC "-//W3C//DTD SVG 1.1 Tiny//EN" "http://www.w3.org/Graphics/SVG/1.1/DTD/svg11-tiny.dtd">
<svg version="1.1" baseProfile="tiny" id="Layer_1" xmlns="http://www.w3.org/2000/svg" xmlns:xlink="http://www.w3.org/1999/xlink"
	 x="0px" y="0px" width="24px" height="24px" viewBox="0 0 24 24" xml:space="preserve">
<g>
	<g>
		<path fill="#0297A0" d="M19.828,4.328c2.031,2.094,3.047,4.615,3.047,7.563c0,2.969-1.07,5.523-3.211,7.664
			s-4.7,3.211-7.679,3.211c-2.98,0-5.537-1.065-7.672-3.195s-3.203-4.69-3.203-7.68c0-2.678,0.864-5.025,2.594-7.047l1.188,0.969
			c-1.5,1.75-2.25,3.775-2.25,6.078c0,2.563,0.917,4.761,2.75,6.594c1.833,1.834,4.031,2.75,6.594,2.75
			c2.562,0,4.759-0.916,6.593-2.75c1.833-1.833,2.75-4.031,2.75-6.594c0-2.49-0.864-4.646-2.594-6.469l-1.375,3.047L15.375,1
			l7.453,1.984L19.828,4.328z"/>
	</g>
</g>
</svg>
