<?xml version="1.0" encoding="utf-8"?>
<!-- Generator: Adobe Illustrator 15.0.0, SVG Export Plug-In . SVG Version: 6.00 Build 0)  -->
<!DOCTYPE svg PUBLIC "-//W3C//DTD SVG 1.1 Tiny//EN" "http://www.w3.org/Graphics/SVG/1.1/DTD/svg11-tiny.dtd">
<svg version="1.1" baseProfile="tiny" id="Layer_1" xmlns="http://www.w3.org/2000/svg" xmlns:xlink="http://www.w3.org/1999/xlink"
	 x="0px" y="0px" width="24px" height="24px" viewBox="0 0 24 24" xml:space="preserve">
<g>
	<g>
		<path fill="#0297A0" d="M8.061,19.209c0.928-2.283,1.922-4.464,2.984-6.544c1.063-2.081,2.156-4.001,3.285-5.762
			c1.328-2.064,2.377-3.553,3.143-4.465c0.492-0.587,0.955-1.071,1.389-1.451c0.252-0.217,0.65-0.38,1.193-0.489
			c1.318-0.261,2.24-0.391,2.764-0.391c0.232,0,0.348,0.087,0.348,0.261c0,0.163-0.115,0.359-0.348,0.587
			c-2.014,1.934-4.125,4.699-6.336,8.295s-4.076,7.417-5.596,11.458c-0.574,1.51-0.974,2.437-1.2,2.779
			C9.459,23.829,8.751,24,7.563,24c-0.775,0-1.261-0.081-1.458-0.244c-0.195-0.164-0.551-0.68-1.064-1.548
			c-0.887-1.446-1.838-2.75-2.854-3.912c-0.534-0.608-0.801-1.075-0.801-1.401c0-0.457,0.297-0.905,0.891-1.345
			c0.594-0.44,1.083-0.66,1.465-0.66c0.533,0,1.176,0.323,1.926,0.969C6.417,16.506,7.216,17.622,8.061,19.209z"/>
	</g>
</g>
</svg>
