<?xml version="1.0" encoding="utf-8"?>
<!-- Generator: Adobe Illustrator 15.0.0, SVG Export Plug-In . SVG Version: 6.00 Build 0)  -->
<!DOCTYPE svg PUBLIC "-//W3C//DTD SVG 1.1 Tiny//EN" "http://www.w3.org/Graphics/SVG/1.1/DTD/svg11-tiny.dtd">
<svg version="1.1" baseProfile="tiny" id="Layer_1" xmlns="http://www.w3.org/2000/svg" xmlns:xlink="http://www.w3.org/1999/xlink"
	 x="0px" y="0px" width="24px" height="24px" viewBox="0 0 24 24" xml:space="preserve">
<g>
	<g>
		<path fill="#0297A0" d="M20.5,21.848c0,0.399-0.213,0.83-0.641,1.291c-0.428,0.459-0.838,0.688-1.228,0.688H5.399
			c-0.382,0-0.789-0.234-1.221-0.701c-0.431-0.469-0.647-0.896-0.647-1.289V5.307c0-0.138,0.069-0.386,0.208-0.744
			c0.139-0.358,0.405-0.667,0.8-0.928c0.395-0.261,0.783-0.391,1.166-0.391h3.442c0.114,0,0.195-0.045,0.245-0.134
			c0.024-0.041,0.036-0.226,0.036-0.555c0-0.33,0.118-0.535,0.354-0.618c0.098-0.032,0.358-0.052,0.781-0.061
			c0.025-0.203,0.053-0.409,0.086-0.616c0.033-0.208,0.118-0.389,0.256-0.543c0.074-0.09,0.238-0.184,0.494-0.281
			c0.257-0.098,0.45-0.146,0.581-0.146c0.179,0,0.415,0.073,0.708,0.219c0.293,0.146,0.472,0.297,0.537,0.452
			c0.098,0.22,0.144,0.513,0.135,0.88c0.017,0.007,0.195,0.011,0.537,0.011c0.406,0,0.617,0.232,0.635,0.697
			c0.016,0.463,0.117,0.695,0.306,0.695h3.49c0.432,0,0.844,0.148,1.233,0.446c0.391,0.296,0.654,0.652,0.793,1.068
			C20.45,5.051,20.5,5.229,20.5,5.295V21.848z M17.387,5.699v-1.21c0-0.138-0.113-0.291-0.341-0.457
			C16.816,3.865,16.63,3.78,16.482,3.78h-1.523c-0.709,0-1.079-0.407-1.111-1.219h-0.269c-0.464,0-0.733-0.284-0.813-0.849
			c-0.076-0.566-0.339-0.849-0.786-0.849c-0.432,0-0.703,0.287-0.812,0.86c-0.11,0.574-0.369,0.861-0.776,0.861
			c-0.098,0-0.195-0.008-0.293-0.024C10.075,3.374,9.708,3.781,9,3.781H7.511c-0.187,0-0.39,0.089-0.61,0.264
			c-0.22,0.175-0.33,0.352-0.33,0.53v1.124H17.387z M19.463,22.007V5.1c0-0.179-0.127-0.378-0.378-0.599
			c-0.253-0.219-0.469-0.329-0.647-0.329h-0.623c0.05,0.098,0.074,0.184,0.074,0.257V6.32H6.071V4.172H5.594
			c-0.179,0-0.395,0.112-0.647,0.335C4.695,4.732,4.568,4.933,4.568,5.112v16.883c0,0.188,0.135,0.391,0.404,0.61
			s0.5,0.328,0.695,0.328h12.696c0.188,0,0.416-0.108,0.688-0.328C19.326,22.386,19.463,22.188,19.463,22.007z M12.516,1.829
			c0,0.333-0.174,0.5-0.523,0.5c-0.342,0-0.513-0.175-0.513-0.525c0-0.342,0.171-0.513,0.513-0.513
			C12.342,1.291,12.516,1.47,12.516,1.829z"/>
	</g>
</g>
</svg>
