<svg xmlns="http://www.w3.org/2000/svg" width="18" height="18" viewBox="0 0 18 18">
    <g fill="#657192" fill-rule="nonzero">
        <path d="M17.455 7.376h-2.011a9.7 9.7 0 0 0-.519-1.555l1.44-1.44a.498.498 0 0 0 .174-.346.41.41 0 0 0-.173-.346L14.29 1.615a.525.525 0 0 0-.691 0l-1.441 1.44a9.835 9.835 0 0 0-1.556-.518V.525a.516.516 0 0 0-.518-.518H7.893a.516.516 0 0 0-.519.518v2.012a9.702 9.702 0 0 0-1.556.519l-1.44-1.441a.525.525 0 0 0-.692 0L1.613 3.688a.498.498 0 0 0-.173.346.411.411 0 0 0 .173.345l1.44 1.44a9.7 9.7 0 0 0-.518 1.557H.523a.516.516 0 0 0-.519.52v2.189a.516.516 0 0 0 .52.518h2.01c.13.532.303 1.053.52 1.556l-1.441 1.44a.498.498 0 0 0-.173.346.41.41 0 0 0 .173.345l2.074 2.075a.525.525 0 0 0 .692 0l1.44-1.441c.504.216 1.024.39 1.556.519v2.011a.516.516 0 0 0 .519.519h2.187a.516.516 0 0 0 .519-.519v-2.011a9.694 9.694 0 0 0 1.556-.52l1.44 1.442a.525.525 0 0 0 .692 0l2.074-2.075a.525.525 0 0 0 0-.692l-1.44-1.44c.216-.503.39-1.024.518-1.556h2.012a.516.516 0 0 0 .519-.519v-2.19a.608.608 0 0 0-.516-.517zm-2.88 2.593a8.382 8.382 0 0 1-.692 2.012c-.125.2-.102.46.059.634l1.325 1.325-1.382 1.383-1.326-1.324a.516.516 0 0 0-.634-.059 8.39 8.39 0 0 1-2.011.691.488.488 0 0 0-.404.46v1.9H8.295v-1.9a.488.488 0 0 0-.403-.46 9.325 9.325 0 0 1-2.012-.69.524.524 0 0 0-.634.058l-1.334 1.325-1.383-1.382 1.326-1.326a.516.516 0 0 0 .058-.634 8.382 8.382 0 0 1-.692-2.011.488.488 0 0 0-.46-.404H.86V8.415h1.9a.447.447 0 0 0 .46-.404A8.382 8.382 0 0 1 3.913 6a.524.524 0 0 0-.058-.634L2.529 4.04l1.383-1.382 1.325 1.325a.516.516 0 0 0 .634.057 8.382 8.382 0 0 1 2.012-.69.488.488 0 0 0 .403-.46V.99H9.5v1.9a.447.447 0 0 0 .403.46c.696.151 1.37.383 2.012.69.2.126.46.103.634-.057l1.325-1.325 1.383 1.382-1.326 1.326a.516.516 0 0 0-.058.634c.315.638.548 1.314.692 2.011.04.226.231.394.46.404h1.9v1.21h-1.9a.438.438 0 0 0-.45.341v.003z"/>
        <path d="M8.931 12.676a3.688 3.688 0 1 1 3.688-3.688 3.606 3.606 0 0 1-3.688 3.688zm0-6.337a2.65 2.65 0 1 0 2.65 2.65 2.643 2.643 0 0 0-2.65-2.65z"/>
    </g>
</svg>
