<?xml version="1.0" encoding="utf-8"?>
<!-- Generator: Adobe Illustrator 15.0.0, SVG Export Plug-In . SVG Version: 6.00 Build 0)  -->
<!DOCTYPE svg PUBLIC "-//W3C//DTD SVG 1.1//EN" "http://www.w3.org/Graphics/SVG/1.1/DTD/svg11.dtd">
<svg version="1.1" id="Layer_1" xmlns="http://www.w3.org/2000/svg" xmlns:xlink="http://www.w3.org/1999/xlink" x="0px" y="0px"
	 width="40px" height="40px" viewBox="0 0 40 40" enable-background="new 0 0 40 40" xml:space="preserve">
<path fill="#E3FDFD" d="M19.913,1.154C8.917,1.154,0,10.069,0,21.07c0,8.797,5.706,16.262,13.62,18.895
	c0.996,0.184,1.359-0.432,1.359-0.959c0-0.473-0.017-1.725-0.026-3.387c-5.54,1.203-6.708-2.67-6.708-2.67
	c-0.906-2.301-2.211-2.914-2.211-2.914c-1.808-1.234,0.137-1.209,0.137-1.209c1.999,0.141,3.05,2.053,3.05,2.053
	c1.776,3.043,4.661,2.164,5.795,1.654c0.181-1.287,0.696-2.166,1.264-2.662c-4.422-0.502-9.071-2.211-9.071-9.844
	c0-2.174,0.776-3.951,2.05-5.343c-0.205-0.504-0.888-2.529,0.195-5.27c0,0,1.672-0.537,5.476,2.042
	c1.589-0.442,3.292-0.664,4.986-0.672c1.689,0.008,3.396,0.229,4.986,0.672c3.802-2.579,5.471-2.042,5.471-2.042
	c1.087,2.741,0.402,4.766,0.199,5.27c1.275,1.392,2.047,3.168,2.047,5.343c0,7.65-4.656,9.334-9.094,9.829
	c0.716,0.615,1.353,1.83,1.353,3.688c0,2.662-0.022,4.811-0.022,5.463c0,0.533,0.357,1.152,1.369,0.957
	c7.904-2.639,13.604-10.098,13.604-18.893C39.829,10.069,30.912,1.154,19.913,1.154z"/>
</svg>
